<svg xmlns="http://www.w3.org/2000/svg" xmlns:xlink="http://www.w3.org/1999/xlink" version="1.1" x="0px" y="0px" viewBox="0 0 100 125" enable-background="new 0 0 100 100" xml:space="preserve"><path d="M66.215,92.648c-0.185,0-0.364-0.014-0.538-0.041c-3.623-0.568-10.37-9.236-14.025-14.286  c-4.813,2.391-14.885,3.248-24.927-6.522c-4.713-4.585-5.848-9.739-6.759-13.88c-1.128-5.126-1.816-7.421-6.326-8.089  c-2.155-0.328-4.357-0.953-6.069,2.153c-0.502,0.911-1.654-1.399-1.362-4.682c0.276-3.104,2.217-7.599,5.908-10.633  c3.653-3.002,8.002-0.992,9.622-0.155c2.58,1.335,4.966,2.778,8.46,5.017l8.788-32.697c0.188-0.697,0.736-1.239,1.437-1.418  c0.701-0.179,1.441,0.033,1.94,0.555c0.385,0.402,9.438,9.933,10.848,16.976c0.779,3.896,0.78,7.136,0.522,9.575  c8.345-5.471,17.4-11.905,22.877-15.797c3.926-2.79,7.317-5.199,9.808-6.89c3.823-2.595,5.256-3.566,6.684-2.263  c0.393,0.358,0.627,0.857,0.65,1.388c0.041,0.923,0.914,22.746-7.815,36.476c-7.108,11.18-22.241,13.049-29.675,13.612  c2.866,2.612,7.67,6.066,12.916,5.754c9.901-0.561,16.566-0.032,16.911,4.387c0.443,5.669-6.981,13.012-9.268,15.128  C74.703,88.275,69.598,92.647,66.215,92.648z M54.117,73.439C58.059,81.221,64.737,87.85,67.1,88.44c0.001,0-0.951-0.423-0.95-0.423  c1.002,0.001,5.59-1.949,10.285-6.951c3.511-3.739,5.714-7.407,5.673-9.422c-0.434-0.361-2.597-1.425-12.703-0.85  c-10.368,0.599-18.655-9.646-19.002-10.082c-0.499-0.628-0.994-2.211-0.191-2.199c7.905,0.113,25.706-2.775,32.351-13.226  c6.163-9.694,7.113-24.412,7.215-30.893c-2.584,1.716-6.765,4.687-10.85,7.589c-11.574,8.225-20.314,14.232-26.939,18.428  c-0.119,0.095-0.248,0.176-0.384,0.241c-11.371,7.169-16.404,8.887-18.869,7.282c-0.86-0.56-1.658-1.077-2.4-1.558  c-0.003-0.002-0.005-0.003-0.007-0.005c-5.049-3.269-7.577-4.832-10.426-6.306c-1.137-0.587-3.309-1.36-5.06,0.077  c-1.945,1.6-3.514,4.158-4.391,6.147c1.078-0.405,2.352-0.629,3.774-0.419c7.428,1.101,8.556,6.228,9.647,11.186  c0.879,3.994,1.787,8.124,5.641,11.873C40.149,79.279,54.08,73.366,54.117,73.439z M34.812,44.515  c1.869,0.302,7.516-2.758,14.276-7.008c0.446-1.444,1.429-5.639,0.201-11.777c-0.735-3.672-4.535-8.854-7.402-12.275L33.728,43.81  C34.078,44.038,34.44,44.273,34.812,44.515z"/><text x="0" y="115" fill="#000000" font-size="5px" font-weight="bold" font-family="'Helvetica Neue', Helvetica, Arial-Unicode, Arial, Sans-serif">Created by H Alberto Gongora</text><text x="0" y="120" fill="#000000" font-size="5px" font-weight="bold" font-family="'Helvetica Neue', Helvetica, Arial-Unicode, Arial, Sans-serif">from the Noun Project</text></svg>